<mxfile host="Electron" modified="2023-10-28T02:19:00.416Z" agent="Mozilla/5.0 (Windows NT 10.0; Win64; x64) AppleWebKit/537.36 (KHTML, like Gecko) draw.io/22.0.0 Chrome/114.0.5735.289 Electron/25.8.3 Safari/537.36" etag="bJM5l1B-od4TfemtTIcS" version="22.0.0" type="device">
  <diagram name="第 1 页" id="p64spe06GVbjPgFpFUj5">
    <mxGraphModel dx="1548" dy="894" grid="1" gridSize="10" guides="1" tooltips="1" connect="1" arrows="1" fold="1" page="1" pageScale="1" pageWidth="827" pageHeight="1169" math="0" shadow="0">
      <root>
        <mxCell id="0" />
        <mxCell id="1" parent="0" />
        <mxCell id="nbx796DIyqRFJzzPWpJO-8" value="" style="edgeStyle=orthogonalEdgeStyle;rounded=0;orthogonalLoop=1;jettySize=auto;html=1;entryX=-0.03;entryY=0.462;entryDx=0;entryDy=0;entryPerimeter=0;strokeWidth=3;" parent="1" source="nbx796DIyqRFJzzPWpJO-1" target="nbx796DIyqRFJzzPWpJO-2" edge="1">
          <mxGeometry relative="1" as="geometry">
            <mxPoint x="224.08500000000004" y="225" as="targetPoint" />
            <Array as="points">
              <mxPoint x="150" y="430" />
              <mxPoint x="150" y="430" />
            </Array>
          </mxGeometry>
        </mxCell>
        <mxCell id="nbx796DIyqRFJzzPWpJO-1" value="" style="image;points=[];aspect=fixed;html=1;align=center;shadow=0;dashed=0;image=img/lib/allied_telesis/computer_and_terminals/Laptop.svg;" parent="1" vertex="1">
          <mxGeometry x="100" y="365" width="128.17" height="130" as="geometry" />
        </mxCell>
        <mxCell id="nbx796DIyqRFJzzPWpJO-2" value="" style="image;points=[];aspect=fixed;html=1;align=center;shadow=0;dashed=0;image=img/lib/allied_telesis/computer_and_terminals/Server_Desktop.svg;" parent="1" vertex="1">
          <mxGeometry x="366" y="375" width="94.67" height="120" as="geometry" />
        </mxCell>
        <mxCell id="nbx796DIyqRFJzzPWpJO-4" value="" style="image;points=[];aspect=fixed;html=1;align=center;shadow=0;dashed=0;image=img/lib/allied_telesis/computer_and_terminals/Server_Desktop.svg;" parent="1" vertex="1">
          <mxGeometry x="680" y="375" width="94.67" height="120" as="geometry" />
        </mxCell>
        <mxCell id="nbx796DIyqRFJzzPWpJO-11" value="www.google.com" style="text;html=1;align=center;verticalAlign=middle;resizable=0;points=[];autosize=1;strokeColor=none;fillColor=none;fontSize=22;" parent="1" vertex="1">
          <mxGeometry x="320" y="500" width="190" height="40" as="geometry" />
        </mxCell>
        <mxCell id="R-JkEhKB7ba2PzNHkIHS-1" value="" style="image;points=[];aspect=fixed;html=1;align=center;shadow=0;dashed=0;image=img/lib/allied_telesis/computer_and_terminals/Server_Desktop.svg;" parent="1" vertex="1">
          <mxGeometry x="680" y="525" width="94.67" height="120" as="geometry" />
        </mxCell>
        <mxCell id="R-JkEhKB7ba2PzNHkIHS-2" value="" style="image;points=[];aspect=fixed;html=1;align=center;shadow=0;dashed=0;image=img/lib/allied_telesis/computer_and_terminals/Server_Desktop.svg;" parent="1" vertex="1">
          <mxGeometry x="680" y="230" width="94.67" height="120" as="geometry" />
        </mxCell>
        <mxCell id="R-JkEhKB7ba2PzNHkIHS-3" value="" style="endArrow=classic;html=1;rounded=0;exitX=1.003;exitY=0.487;exitDx=0;exitDy=0;exitPerimeter=0;entryX=0.002;entryY=0.588;entryDx=0;entryDy=0;entryPerimeter=0;dashed=1;" parent="1" source="nbx796DIyqRFJzzPWpJO-2" target="R-JkEhKB7ba2PzNHkIHS-2" edge="1">
          <mxGeometry width="50" height="50" relative="1" as="geometry">
            <mxPoint x="510" y="290" as="sourcePoint" />
            <mxPoint x="560" y="240" as="targetPoint" />
          </mxGeometry>
        </mxCell>
        <mxCell id="R-JkEhKB7ba2PzNHkIHS-4" value="" style="endArrow=classic;html=1;rounded=0;entryX=0.002;entryY=0.588;entryDx=0;entryDy=0;entryPerimeter=0;dashed=1;" parent="1" source="nbx796DIyqRFJzzPWpJO-2" edge="1">
          <mxGeometry width="50" height="50" relative="1" as="geometry">
            <mxPoint x="460.67" y="572" as="sourcePoint" />
            <mxPoint x="679.67" y="440" as="targetPoint" />
          </mxGeometry>
        </mxCell>
        <mxCell id="R-JkEhKB7ba2PzNHkIHS-5" value="" style="endArrow=classic;html=1;rounded=0;entryX=0.002;entryY=0.588;entryDx=0;entryDy=0;entryPerimeter=0;exitX=1.003;exitY=0.533;exitDx=0;exitDy=0;exitPerimeter=0;dashed=1;" parent="1" source="nbx796DIyqRFJzzPWpJO-2" edge="1">
          <mxGeometry width="50" height="50" relative="1" as="geometry">
            <mxPoint x="461.33" y="590" as="sourcePoint" />
            <mxPoint x="680" y="594" as="targetPoint" />
          </mxGeometry>
        </mxCell>
        <mxCell id="R-JkEhKB7ba2PzNHkIHS-6" value="" style="rounded=0;whiteSpace=wrap;html=1;fillColor=none;dashed=1;" parent="1" vertex="1">
          <mxGeometry x="60" y="170" width="370" height="530" as="geometry" />
        </mxCell>
        <mxCell id="R-JkEhKB7ba2PzNHkIHS-7" value="" style="rounded=0;whiteSpace=wrap;html=1;fillColor=none;dashed=1;" parent="1" vertex="1">
          <mxGeometry x="430" y="170" width="370" height="530" as="geometry" />
        </mxCell>
        <mxCell id="R-JkEhKB7ba2PzNHkIHS-10" value="外网" style="text;html=1;strokeColor=none;fillColor=none;align=center;verticalAlign=middle;whiteSpace=wrap;rounded=0;fontSize=22;" parent="1" vertex="1">
          <mxGeometry x="99.33" y="190" width="60" height="30" as="geometry" />
        </mxCell>
        <mxCell id="R-JkEhKB7ba2PzNHkIHS-11" value="内网" style="text;html=1;strokeColor=none;fillColor=none;align=center;verticalAlign=middle;whiteSpace=wrap;rounded=0;fontSize=22;" parent="1" vertex="1">
          <mxGeometry x="450" y="190" width="60" height="30" as="geometry" />
        </mxCell>
      </root>
    </mxGraphModel>
  </diagram>
</mxfile>
